<svg xmlns="http://www.w3.org/2000/svg" viewBox="0 0 64 64" role="img" aria-label="JC">
  <rect width="64" height="64" rx="8" fill="#0f766e"/>
  <path d="M22 18h8v22c0 5.6-3.8 9-9.6 9-2.4 0-4.7-.6-6.4-1.6l1.9-6.2c1.1.6 2.4 1 3.8 1 2 0 3.2-1.1 3.2-3.5V18Z" fill="#fffaf2"/>
  <path d="M49.9 46.7c-2 1-4.7 1.7-8.2 1.7-8.7 0-14.4-5.4-14.4-14 0-9 6.5-14.9 15-14.9 3.6 0 6.3.8 7.6 1.4l-1.6 6.3c-1.4-.6-3.3-1.1-5.7-1.1-4.6 0-8.2 2.8-8.2 8 0 4.8 3.1 7.9 8.3 7.9 2 0 4.2-.4 5.6-.9l1.6 6.6Z" fill="#f8d77e"/>
</svg>
